<?xml version="1.0" encoding="utf-8"?>
<!-- Generator: Adobe Illustrator 22.0.0, SVG Export Plug-In . SVG Version: 6.00 Build 0)  -->
<svg version="1.1" id="Layer_1" xmlns="http://www.w3.org/2000/svg" xmlns:xlink="http://www.w3.org/1999/xlink" x="0px" y="0px"
	 viewBox="0 0 569 569" style="enable-background:new 0 0 569 569;" xml:space="preserve">
<style type="text/css">
	.st0{fill:#FFFFFF;}
</style>
<path class="st0" d="M1.8,52.2l37.9,66.4c1.3,2.2,3.4,3.9,5.9,4.5l35.4,8.9l121.4,121.4l13.4-13.4L92.6,116.6
	c-1.2-1.2-2.7-2.1-4.4-2.5l-34-8.5L21.9,49l27.7-27.7l56.6,32.3l8.5,34c0.4,1.7,1.3,3.2,2.5,4.4l123.3,123.3l13.4-13.4L132.5,80.6
	l-8.9-35.4c-0.6-2.5-2.3-4.7-4.5-5.9L52.8,1.3C49-0.8,44.4-0.2,41.4,2.8L3.4,40.8C0.4,43.8-0.3,48.5,1.8,52.2z"/>
<path class="st0" d="M396.2,187L187.5,395.7l-13.4-13.4l208.7-208.7L396.2,187z"/>
<path class="st0" d="M151,403.1c-1.7-2.9-4.8-4.6-8.1-4.6H85.9c-3.3,0-6.4,1.7-8.1,4.6l-28.5,47.4c-1.8,3-1.8,6.8,0,9.8l28.5,47.4
	c1.7,2.9,4.8,4.6,8.1,4.6h56.9c3.3,0,6.4-1.7,8.1-4.6l28.5-47.4c1.8-3,1.8-6.8,0-9.8L151,403.1z M137.5,493.3H91.3l-22.8-37.9
	l22.8-37.9h46.2l22.8,37.9L137.5,493.3z"/>
<path class="st0" d="M455.9,227.7c62.7,0.2,113.6-50.4,113.8-113.1c0-9.5-1.1-19-3.5-28.3c-1.3-5.1-6.4-8.2-11.5-6.9
	c-1.7,0.4-3.2,1.3-4.4,2.5l-59.1,59l-46.9-15.6l-15.6-46.8l59.1-59.1c3.7-3.7,3.7-9.7,0-13.4c-1.2-1.2-2.8-2.1-4.4-2.5
	c-60.8-15.4-122.5,21.4-137.9,82.2c-2.3,9.2-3.5,18.7-3.5,28.2c0,7.5,0.8,14.9,2.3,22.2L136.6,343.8c-7.3-1.5-14.8-2.3-22.2-2.3
	c-62.9,0-113.8,51-113.8,113.8c0,62.9,51,113.8,113.8,113.8c62.9,0,113.8-51,113.8-113.8c0-7.5-0.8-14.9-2.3-22.2l49.7-49.7
	l21.8,21.8c3.7,3.7,9.7,3.7,13.4,0l4.7-4.7c4.2-4.1,10.9-4.1,15,0c4.2,4.1,4.2,10.9,0,15c0,0,0,0,0,0l-4.7,4.7
	c-3.7,3.7-3.7,9.7,0,13.4L439,546.8c29.8,30,78.2,30.3,108.3,0.5c30-29.8,30.3-78.2,0.5-108.3c-0.2-0.2-0.3-0.3-0.5-0.5L434.1,325.3
	c-3.7-3.7-9.7-3.7-13.4,0l-4.7,4.7c-4.2,4.1-10.9,4.1-15,0c-4.2-4.1-4.2-10.9,0-15c0,0,0,0,0,0l4.7-4.7c3.7-3.7,3.7-9.7,0-13.4
	l-21.8-21.8l49.7-49.7C441,226.9,448.4,227.7,455.9,227.7z M493.2,550.2c-6.9,0-13.7-1.3-20.2-3.7l74.1-74.1
	c11.2,29.7-3.9,62.9-33.6,74.1C507,549,500.1,550.2,493.2,550.2z M385.7,303.7c-10.5,12.5-8.9,31.2,3.7,41.7c11,9.2,27.1,9.2,38.1,0
	l106.5,106.6c1.2,1.2,2.2,2.4,3.3,3.6l-81.1,81.1c-1.2-1-2.5-2.1-3.6-3.3L345.9,426.8c10.5-12.5,8.9-31.2-3.7-41.7
	c-11-9.2-27.1-9.2-38.1,0L289,370l81.5-81.4L385.7,303.7z M424,208.3L208.8,423.4c-2.4,2.4-3.3,5.8-2.5,9
	c13,51.1-17.9,103.1-69,116.1c-51.1,13-103.1-17.9-116.1-69c-13-51.1,17.9-103.1,69-116.1c15.5-3.9,31.7-3.9,47.1,0
	c3.2,0.8,6.6-0.2,9-2.5l215.2-215.2c2.4-2.4,3.3-5.8,2.5-9C351,86.3,381.5,34.8,432,21.9c9.5-2.4,19.4-3.4,29.3-2.8l-50,50.1
	c-2.5,2.5-3.4,6.3-2.3,9.7l19,56.9c0.9,2.8,3.2,5.1,6,6l56.9,19c3.4,1.1,7.2,0.2,9.7-2.3l50-50c0.1,1.8,0.2,3.6,0.2,5.4
	c0.3,52.1-41.8,94.6-93.9,94.9c-8.1,0-16.1-1-23.9-3C429.7,205,426.3,205.9,424,208.3L424,208.3L424,208.3z"/>
<path class="st0" d="M491.1,477.1l-13.4,13.4l-94.9-94.9l13.4-13.4L491.1,477.1z"/>
</svg>
