<?xml version="1.0" encoding="utf-8"?>
<!-- Generator: Adobe Illustrator 22.0.0, SVG Export Plug-In . SVG Version: 6.00 Build 0)  -->
<svg version="1.1" id="Capa_1" xmlns="http://www.w3.org/2000/svg" xmlns:xlink="http://www.w3.org/1999/xlink" x="0px" y="0px"
	 viewBox="0 0 512 512" style="enable-background:new 0 0 512 512;" xml:space="preserve">
<style type="text/css">
	.st0{opacity:0.4;fill:#0071BC;}
	.st1{fill:#FFFFFF;stroke:#1964DD;stroke-width:3;stroke-miterlimit:10;}
	.st2{fill:#FFFFFF;stroke:#F15A24;stroke-width:4;stroke-miterlimit:10;}
	.st3{fill:#FBB03B;}
	.st4{fill:none;stroke:#F15A24;stroke-width:4;stroke-miterlimit:10;}
	.st5{fill:#FFFFFF;}
</style>
<polygon class="st0" points="419.4,143 419.4,359 227.6,359 131.3,425.1 131.4,359 74,359 74,143 "/>
<polygon class="st1" points="393,119.3 393,335.3 201.2,335.3 105,401.4 105.1,335.3 47.6,335.3 47.6,119.3 "/>
<circle class="st2" cx="364.7" cy="165.5" r="106.8"/>
<line class="st1" x1="97.7" y1="170.7" x2="220.3" y2="170.7"/>
<line class="st1" x1="99" y1="218.2" x2="236.8" y2="218.2"/>
<line class="st1" x1="99" y1="267" x2="246" y2="267"/>
<circle class="st3" cx="377.2" cy="176.7" r="106.8"/>
<circle class="st4" cx="365.3" cy="166.1" r="106.8"/>
<g>
	<path class="st5" d="M402.9,153.3v-12.2c0-17.4-14.3-31.5-31.9-31.5s-31.9,14.1-31.9,31.5v12.2c-6.8,1.3-12,7.7-12,15.5v42.5
		c0,8.7,6.5,15.7,14.4,15.7h58.9c8,0,14.4-7.1,14.4-15.7v-42.5C414.9,161,409.7,154.5,402.9,153.3z M343.1,141.1
		c0-15,12.5-27.2,27.9-27.2c15.4,0,27.9,12.2,27.9,27.2v12h-55.9V141.1z M410.9,211.3c0,6.3-4.7,11.4-10.4,11.4h-58.9
		c-5.8,0-10.4-5.1-10.4-11.4v-42.5c0-6.3,4.7-11.4,10.4-11.4h58.9c5.8,0,10.4,5.1,10.4,11.4V211.3z"/>
	<path class="st5" d="M371,170.4c-4.4,0-8,3.9-8,8.7v13.1c0,4.8,3.6,8.7,8,8.7s8-3.9,8-8.7v-13.1C379,174.3,375.4,170.4,371,170.4z
		 M375,192.2c0,2.4-1.8,4.4-4,4.4s-4-2-4-4.4v-13.1c0-2.4,1.8-4.4,4-4.4s4,2,4,4.4V192.2z"/>
</g>
</svg>
