<?xml version="1.0" encoding="utf-8"?>
<!-- Generator: Adobe Illustrator 22.0.0, SVG Export Plug-In . SVG Version: 6.00 Build 0)  -->
<svg version="1.1" id="Capa_1" xmlns="http://www.w3.org/2000/svg" xmlns:xlink="http://www.w3.org/1999/xlink" x="0px" y="0px"
	 viewBox="0 0 54 54" style="enable-background:new 0 0 54 54;" xml:space="preserve">
<style type="text/css">
	.st0{fill:#FFFFFF;}
</style>
<g>
	<path class="st0" d="M27,13c-7.7,0-14,6.3-14,14s6.3,14,14,14s14-6.3,14-14S34.7,13,27,13z M27,39c-6.6,0-12-5.4-12-12
		s5.4-12,12-12s12,5.4,12,12S33.6,39,27,39z"/>
	<path class="st0" d="M51.2,21h-2c-0.5-1.9-1.3-3.7-2.3-5.5l1.4-1.4c0.5-0.5,0.8-1.2,0.8-2c0-0.7-0.3-1.4-0.8-2l-4.6-4.6
		c-1-1-2.9-1.1-3.9,0l-1.4,1.4c-1.7-1-3.5-1.7-5.5-2.3v-2C33,1.2,31.8,0,30.2,0h-6.4C22.2,0,21,1.2,21,2.8v2
		c-1.9,0.5-3.7,1.3-5.5,2.3l-1.4-1.4c-1.1-1.1-2.9-1-3.9,0l-4.6,4.6c-0.5,0.5-0.8,1.2-0.8,2c0,0.7,0.3,1.4,0.8,2l1.4,1.4
		c-1,1.7-1.7,3.5-2.3,5.5h-2C1.2,21,0,22.2,0,23.8v6.4C0,31.8,1.2,33,2.8,33h2c0.5,1.9,1.3,3.7,2.3,5.5l-1.4,1.4
		c-0.5,0.5-0.8,1.2-0.8,2c0,0.7,0.3,1.4,0.8,2l4.6,4.6c1.1,1.1,2.9,1.1,3.9,0l1.4-1.4c1.7,1,3.5,1.7,5.5,2.3v2
		c0,1.5,1.2,2.8,2.8,2.8h6.4c1.5,0,2.8-1.2,2.8-2.8v-2c1.9-0.5,3.7-1.3,5.5-2.3l1.4,1.4c1.1,1.1,2.9,1,3.9,0l4.6-4.6
		c0.5-0.5,0.8-1.2,0.8-2c0-0.7-0.3-1.4-0.8-2l-1.4-1.4c1-1.7,1.7-3.5,2.3-5.5h2c1.5,0,2.8-1.2,2.8-2.8v-6.4C54,22.2,52.8,21,51.2,21
		z M52,30.2c0,0.4-0.3,0.8-0.8,0.8h-3.6l-0.2,0.8c-0.5,2.2-1.4,4.4-2.6,6.3l-0.4,0.7l2.5,2.5c0.3,0.3,0.3,0.8,0,1.1L42.4,47
		c-0.3,0.3-0.8,0.3-1.1,0l-2.5-2.5l-0.7,0.4c-2,1.2-4.1,2.1-6.3,2.6L31,47.6v3.6c0,0.4-0.4,0.8-0.8,0.8h-6.4c-0.4,0-0.8-0.3-0.8-0.8
		v-3.6l-0.8-0.2c-2.2-0.5-4.4-1.4-6.3-2.6l-0.7-0.4L12.7,47c-0.3,0.3-0.8,0.3-1.1,0L7,42.4c-0.3-0.3-0.3-0.8,0-1.1l2.5-2.5l-0.4-0.7
		c-1.2-2-2.1-4.1-2.6-6.3L6.4,31H2.8C2.3,31,2,30.6,2,30.2v-6.4C2,23.4,2.3,23,2.8,23h3.6l0.2-0.8C7.1,20,8,17.9,9.2,15.9l0.4-0.7
		L7,12.7c-0.3-0.3-0.3-0.8,0-1.1L11.6,7c0.3-0.3,0.8-0.3,1.1,0l2.5,2.5l0.7-0.4c2-1.2,4.1-2.1,6.3-2.6L23,6.4V2.8
		C23,2.3,23.4,2,23.8,2h6.4C30.6,2,31,2.3,31,2.8v3.6l0.8,0.2C34,7.1,36.1,8,38.1,9.2l0.7,0.4L41.3,7c0.3-0.3,0.8-0.3,1.1,0l4.6,4.6
		c0.3,0.3,0.3,0.8,0,1.1l-2.5,2.5l0.4,0.7c1.2,1.9,2.1,4.1,2.6,6.3l0.2,0.8h3.6c0.4,0,0.8,0.4,0.8,0.8V30.2z"/>
	<path class="st0" d="M27,17c-5.5,0-10,4.5-10,10s4.5,10,10,10s10-4.5,10-10S32.5,17,27,17z M27,35c-4.4,0-8-3.6-8-8s3.6-8,8-8
		s8,3.6,8,8S31.4,35,27,35z"/>
</g>
</svg>
