<?xml version="1.0" encoding="utf-8"?>
<!-- Generator: Adobe Illustrator 22.0.0, SVG Export Plug-In . SVG Version: 6.00 Build 0)  -->
<svg version="1.1" id="Layer_1" xmlns="http://www.w3.org/2000/svg" xmlns:xlink="http://www.w3.org/1999/xlink" x="0px" y="0px"
	 viewBox="0 0 470 470" style="enable-background:new 0 0 470 470;" xml:space="preserve">
<style type="text/css">
	.st0{fill:#FFFFFF;}
</style>
<g>
	<path class="st0" d="M377.5,189.8V74.9c11.2-1.2,20-10.8,20-22.4c0-12.4-10.1-22.5-22.5-22.5H275c-12.4,0-22.5,10.1-22.5,22.5
		c0,11.6,8.8,21.1,20,22.4v114.9c-22.7,8.8-42.9,23.3-58.6,42c-2.7,3.2-2.2,7.9,0.9,10.6c1.4,1.2,3.1,1.8,4.8,1.8
		c2.1,0,4.3-0.9,5.7-2.7c15.2-18.1,34.9-31.7,57.1-39.4c3-1,5-3.9,5-7.1V75H330c4.1,0,7.5-3.4,7.5-7.5S334.2,60,330,60h-55
		c-4.1,0-7.5-3.4-7.5-7.5s3.4-7.5,7.5-7.5h100c4.1,0,7.5,3.4,7.5,7.5S379.2,60,375,60h-15c-4.1,0-7.5,3.4-7.5,7.5s3.4,7.5,7.5,7.5
		h2.5v120c0,3.2,2,6,5,7.1C419.9,220.3,455,269.6,455,325c0,71.7-58.3,130-130,130c-16.9,0-33.3-3.2-48.9-9.5
		c-3.8-1.6-8.2,0.3-9.8,4.1s0.3,8.2,4.1,9.8c17.3,7,35.7,10.6,54.5,10.6c80,0,145-65,145-145C470,265,433.1,211.4,377.5,189.8
		L377.5,189.8z"/>
	<circle class="st0" cx="380.9" cy="351.4" r="7.5"/>
	<circle class="st0" cx="350.9" cy="381.4" r="7.5"/>
	<path class="st0" d="M282.7,415.6c-3.7-1.8-8.2-0.1-10,3.6c-1.8,3.8-0.1,8.2,3.6,10C291.6,436.4,308,440,325,440
		c63.4,0,115-51.6,115-115c0-20.2-5.3-40.1-15.4-57.5c-1.5-2.6-4.5-4.1-7.5-3.7l-2.7,0.4c-0.3,0-0.7,0.1-1,0.2
		c-11.3,3.2-17.5,8.1-22.4,12.1c-5.4,4.4-9,7.3-19.4,7.3c-8.9,0-12.9-3.4-18.4-8.2c-6.1-5.3-13.7-11.8-28.2-11.8
		c-14.4,0-22,6.5-28.2,11.8c-5.5,4.8-9.5,8.2-18.4,8.2c-10.4,0-14-2.9-19.4-7.3c-4.9-3.9-11-8.9-22.4-12.1c-0.3-0.1-0.7-0.2-1-0.2
		l-2.7-0.4c-3-0.4-6,1-7.5,3.7c-0.1,0.1-0.1,0.2-0.2,0.4c-2.1,3.6-0.8,8.2,2.8,10.2c1.6,0.9,3.3,1.2,5,0.9l0.1,0
		c8.1,2.4,12.2,5.7,16.6,9.2c6.5,5.2,13.2,10.6,28.8,10.6c14.4,0,22-6.5,28.2-11.8c5.5-4.8,9.5-8.2,18.4-8.2
		c8.9,0,12.9,3.4,18.4,8.2c6.1,5.3,13.7,11.8,28.2,11.8c15.7,0,22.3-5.4,28.8-10.6c3.9-3.1,7.5-6,13.9-8.3
		c7,13.9,10.7,29.4,10.7,45.1c0,55.1-44.9,100-100,100C310.2,425,296,421.9,282.7,415.6L282.7,415.6z"/>
	<path class="st0" d="M181,193.8V44.9c11.2-1.2,20-10.8,20-22.4C201,10.1,190.9,0,178.5,0h-100C66.1,0,56,10.1,56,22.5
		c0,11.6,8.8,21.1,20,22.4v120.2c0,4.1,3.4,7.5,7.5,7.5s7.5-3.4,7.5-7.5V45h42.5c4.1,0,7.5-3.4,7.5-7.5s-3.4-7.5-7.5-7.5h-55
		c-4.1,0-7.5-3.4-7.5-7.5s3.4-7.5,7.5-7.5h100c4.1,0,7.5,3.4,7.5,7.5s-3.4,7.5-7.5,7.5h-15c-4.1,0-7.5,3.4-7.5,7.5s3.4,7.5,7.5,7.5
		h2.5v150c0,0.8,0.1,1.7,0.4,2.5l72.9,210.8c4.4,12.7,3.4,24.5-2.8,33.2c-6.2,8.7-17,13.5-30.5,13.5H51c-13.5,0-24.3-4.8-30.5-13.5
		c-6.2-8.7-7.2-20.5-2.8-33.2l72.9-210.8c1.4-3.9-0.7-8.2-4.6-9.5c-3.9-1.4-8.2,0.7-9.5,4.6L3.6,403.4c-6,17.4-4.3,34.1,4.8,46.9
		S32.6,470,51,470h155c18.5,0,33.6-7,42.7-19.8c9.1-12.8,10.8-29.4,4.8-46.9L181,193.8L181,193.8z"/>
	<path class="st0" d="M64.7,348.8c-1.9-1.5-4.4-2-6.7-1.3c-2.3,0.7-4.2,2.5-5,4.7l-21.1,60.9c-2.8,8-2.5,15,0.8,19.6
		S42.5,440,51,440h155c8.5,0,15-2.6,18.3-7.2c3.3-4.6,3.6-11.6,0.8-19.6l-21.1-60.9c-0.8-2.3-2.6-4-4.9-4.7
		c-2.3-0.7-4.8-0.2-6.7,1.3c-4.1,3.2-8,5.6-17.3,5.6c-8.9,0-12.9-3.4-18.4-8.2c-6.1-5.3-13.7-11.8-28.2-11.8
		c-14.4,0-22,6.5-28.2,11.8c-5.5,4.8-9.5,8.2-18.4,8.2C72.6,354.4,68.7,352,64.7,348.8L64.7,348.8z M110.1,357.6
		c5.5-4.8,9.5-8.2,18.4-8.2c8.9,0,12.9,3.4,18.4,8.2c6.1,5.3,13.7,11.8,28.2,11.8c7.8,0,13.5-1.4,17.9-3.4l18,52.1
		c1.1,3.1,1.1,5.1,1,6c-0.8,0.4-2.7,1-6,1H51c-3.3,0-5.2-0.6-6-1c-0.1-0.9,0-2.9,1-6l18-52.1c4.4,2,10,3.4,17.9,3.4
		C96.4,369.4,104,362.8,110.1,357.6L110.1,357.6z"/>
</g>
</svg>
